<?xml version="1.0" encoding="utf-8"?>
<!-- Generator: Adobe Illustrator 21.0.0, SVG Export Plug-In . SVG Version: 6.00 Build 0)  -->
<svg version="1.1" id="icon_x5F_7" xmlns="http://www.w3.org/2000/svg" xmlns:xlink="http://www.w3.org/1999/xlink" x="0px" y="0px"
	 viewBox="0 0 54 66.3" style="enable-background:new 0 0 54 66.3;" xml:space="preserve">
<style type="text/css">
	.st0{stroke:#000000;stroke-miterlimit:10;}
	.st1{fill:#FFFFFF;stroke:#000000;stroke-miterlimit:10;}
	
	#details{
	     display: block;
	}

	@media screen and (max-width: 150px;) {

	    #details {
	         display: none;
	    }

    }
</style>
<path id="mic" class="st0" d="M12.3,16.2l0.9,16.5c1.7,4.5,4.2,7.9,7.8,9.6c3.1,1.1,6.6,0.9,10.4,0c5.1-1.6,8.8-4.2,9.6-8.7V17
	C36.7,1.4,18.4,2.2,12.3,16.2z"/>
<path id="half" class="st1" d="M16.7,23.1h21.7V17c-2-8.2-11.6-11-17.7-6c-1.7,1.4-3.1,3.4-4.1,6V23.1z"/>
<polygon id="left" class="st0" points="21,17 25.4,17 25.4,10.1 21,10.9 "/>
<polygon id="right" class="st0" points="29.7,17 33.2,17 33.2,10.1 29.7,8.7 "/>
<path id="bottom" class="st0" d="M25.4,52.7C21,54.4,4.9,41.3,4.5,34.4v-6.1c1.3-2.4,2.8-2.1,4.3,0l0.9,5.2
	c0.2,4.5,4.8,9.2,11.3,13.9l12.2-0.9c5.5-2.6,9.9-6.6,12.2-13v-5.2c2-1.9,3.8-2.6,5.2,0v7C44,48,37,52.8,29.7,51.8v7h8.7v3.5H16.7
	v-3.5l8.7-0.9V52.7z"/>
</svg>
