<?xml version="1.0" encoding="utf-8"?>
<!-- Generator: Adobe Illustrator 21.0.0, SVG Export Plug-In . SVG Version: 6.00 Build 0)  -->
<svg version="1.1" id="icon_x5F_4" xmlns="http://www.w3.org/2000/svg" xmlns:xlink="http://www.w3.org/1999/xlink" x="0px" y="0px"
	 viewBox="0 0 75.1 55" style="enable-background:new 0 0 75.1 55;" xml:space="preserve">
<style type="text/css">
	.st0{stroke:#000000;stroke-miterlimit:10;}

	#details{
	     display: block;
	}

	@media screen and (max-width: 150px;) {

	    #details {
	         display: none;
	    }

    }
</style>
<path id="shopping" class="st0" d="M10.6,9.5h12.3l9.4,24.6h23.1c3.1,1.2,3,2.4,0,3.6H30.1L20,13.1h-8.7C10.6,11,10.3,9.7,10.6,9.5z
	"/>
<path id="short" class="st0" d="M62.3,18.2H30.5c-1,0-1.8-0.8-1.8-1.8v0c0-1,0.8-1.8,1.8-1.8h31.8c1,0,1.8,0.8,1.8,1.8v0
	C64.1,17.4,63.3,18.2,62.3,18.2z"/>
<path id="meduim" class="st0" d="M60.5,24.7H33c-0.8,0-1.4-0.7-1.4-1.4v0c0-0.8,0.7-1.4,1.4-1.4h27.5c0.8,0,1.4,0.7,1.4,1.4v0
	C61.9,24,61.3,24.7,60.5,24.7z"/>
<path id="car" class="st0" d="M58.7,30.5H36.3c-0.6,0-1.1-0.5-1.1-1.1v0c0-0.6,0.5-1.1,1.1-1.1h22.4c0.6,0,1.1,0.5,1.1,1.1v0
	C59.8,30,59.3,30.5,58.7,30.5z"/>
<circle id="wheale2" class="st0" cx="35.2" cy="44.2" r="4.3"/>
<circle id="wheale1" class="st0" cx="49.7" cy="44.2" r="4.3"/>
</svg>
