<?xml version="1.0" encoding="utf-8"?>
<!-- Generator: Adobe Illustrator 21.0.0, SVG Export Plug-In . SVG Version: 6.00 Build 0)  -->
<svg version="1.1" id="icon_x5F_2" xmlns="http://www.w3.org/2000/svg" xmlns:xlink="http://www.w3.org/1999/xlink" x="0px" y="0px"
	 viewBox="0 0 72.7 71.7" style="enable-background:new 0 0 72.7 71.7;" xml:space="preserve">
<style type="text/css">
	.st0{fill:none;stroke:#000000;stroke-miterlimit:10;}
	.st1{stroke:#000000;stroke-miterlimit:10;}

	#details{
	     display: block;
	}

	@media screen and (max-width: 150px;) {

	    #details {
	         display: none;
	    }

    }
</style>
<circle id="out" class="st0" cx="28.2" cy="30.2" r="21.7"/>
<ellipse id="inc" class="st0" cx="28.6" cy="30.2" rx="14.1" ry="13.7"/>
<path id="inside" class="st0" d="M22.6,24.6V25c-3.7,3.4-2.7,7.4,0,11.7c0.8,1.2,1.2,2.1-0.8,1.6c-1.7-0.8-3.2-2.1-4-5.6
	c-0.1-5.3,1.4-8.1,3.2-10.5C23.3,21.7,23.5,22.5,22.6,24.6z"/>
<path id="hand" class="st1" d="M39.8,48.6l3.7,4.1l-0.8,0.8L56.4,68l10.5-8.8L52.3,44.7l-1.6,0.8l-4-4C44.8,44.6,42.5,47,39.8,48.6z
	"/>
</svg>
